<svg width="91" height="92" viewBox="0 0 91 92" fill="none" xmlns="http://www.w3.org/2000/svg">
<rect y="45.7645" width="64" height="64" rx="8" transform="rotate(-45 0 45.7645)" fill="#5AB8D6"/>
<rect x="4.94978" y="45.7645" width="57" height="57" rx="4.5" transform="rotate(-45 4.94978 45.7645)" stroke="black"/>
<circle cx="12.0209" cy="45.7645" r="1.5" transform="rotate(-45 12.0209 45.7645)" fill="black"/>
<circle cx="45.2549" cy="78.9985" r="1.5" transform="rotate(-45 45.2549 78.9985)" fill="black"/>
<circle cx="78.4889" cy="45.7645" r="1.5" transform="rotate(-45 78.4889 45.7645)" fill="black"/>
<circle cx="45.2549" cy="12.5305" r="1.5" transform="rotate(-45 45.2549 12.5305)" fill="black"/>
<path d="M49.25 37.8749C49.25 38.2458 49.14 38.6083 48.934 38.9166C48.728 39.225 48.4351 39.4653 48.0925 39.6072C47.7499 39.7491 47.3729 39.7863 47.0092 39.7139C46.6455 39.6416 46.3114 39.463 46.0492 39.2008C45.7869 38.9385 45.6084 38.6045 45.536 38.2407C45.4637 37.877 45.5008 37.5 45.6427 37.1574C45.7846 36.8148 46.025 36.522 46.3333 36.3159C46.6416 36.1099 47.0042 35.9999 47.375 35.9999C47.8723 35.9999 48.3492 36.1975 48.7008 36.5491C49.0525 36.9008 49.25 37.3777 49.25 37.8749ZM53.9687 52.2499C49.8281 56.3749 43.2812 58.0937 34.4219 57.3906C34.6719 59.2343 35.0156 61.1874 35.4687 63.2343C35.5054 63.3945 35.5098 63.5603 35.4815 63.7222C35.4533 63.884 35.393 64.0386 35.3042 64.1769C35.2154 64.3151 35.1 64.4343 34.9646 64.5273C34.8291 64.6203 34.6765 64.6854 34.5156 64.7187L34.25 64.7499C33.9651 64.7493 33.6889 64.6514 33.4673 64.4724C33.2456 64.2934 33.0918 64.044 33.0312 63.7656C32.5156 61.4374 32.1406 59.2187 31.875 57.1249C29.7812 56.8593 27.5625 56.4687 25.2344 55.9687C24.9091 55.8983 24.6251 55.7015 24.4449 55.4216C24.2646 55.1418 24.203 54.8018 24.2734 54.4765C24.3439 54.1512 24.5407 53.8672 24.8205 53.687C25.1003 53.5068 25.4403 53.4451 25.7656 53.5156C27.8125 53.9687 29.7656 54.3281 31.6094 54.5781C30.9062 45.7187 32.625 39.1718 36.75 35.0312C43.1562 28.6249 53.2812 30.2031 56.2344 30.8437C56.7068 30.9427 57.1401 31.1772 57.4814 31.5185C57.8227 31.8598 58.0572 32.2932 58.1562 32.7656C58.7969 35.7187 60.375 45.8437 53.9687 52.2499ZM55.7187 33.2968C53.375 32.7812 45.9844 31.5937 40.5156 35.1874C40.6252 38.6793 42.0613 41.9981 44.5316 44.4684C47.0019 46.9387 50.3207 48.3748 53.8125 48.4843C57.4062 43.0156 56.2187 35.6249 55.7187 33.2968Z" fill="black"/>
</svg>
