<svg width="91" height="91" viewBox="0 0 91 91" fill="none" xmlns="http://www.w3.org/2000/svg">
<rect y="45.2549" width="64" height="64" rx="8" transform="rotate(-45 0 45.2549)" fill="#F36F22"/>
<rect x="4.94978" y="45.2549" width="57" height="57" rx="4.5" transform="rotate(-45 4.94978 45.2549)" stroke="black"/>
<circle cx="12.0209" cy="45.2549" r="1.5" transform="rotate(-45 12.0209 45.2549)" fill="black"/>
<circle cx="45.2549" cy="78.4889" r="1.5" transform="rotate(-45 45.2549 78.4889)" fill="black"/>
<circle cx="78.4889" cy="45.2549" r="1.5" transform="rotate(-45 78.4889 45.2549)" fill="black"/>
<circle cx="45.2549" cy="12.0209" r="1.5" transform="rotate(-45 45.2549 12.0209)" fill="black"/>
<path d="M56.0518 35.6612C54.0205 32.4112 51.3799 29.6144 49.083 27.3175C48.9413 27.1771 48.7681 27.0726 48.5779 27.0128C48.3876 26.953 48.1858 26.9396 47.9893 26.9737C47.7913 27.0049 47.604 27.0838 47.4434 27.2036C47.2828 27.3234 47.1537 27.4804 47.0674 27.6612L42.2393 37.7862L37.208 34.4269C36.932 34.2442 36.5955 34.1769 36.2705 34.2394C36.1093 34.2712 35.9559 34.3345 35.8192 34.4257C35.6824 34.5168 35.565 34.634 35.4736 34.7706C32.4268 39.3644 30.8799 43.5206 30.8799 47.13C30.8799 50.9425 32.3944 54.5988 35.0902 57.2947C37.7861 59.9905 41.4424 61.505 45.2549 61.505C49.0674 61.505 52.7237 59.9905 55.4195 57.2947C58.1154 54.5988 59.6299 50.9425 59.6299 47.13C59.6299 43.2394 58.458 39.4894 56.0518 35.6612ZM54.5205 48.5675C54.2249 50.5382 53.305 52.362 51.896 53.7711C50.4869 55.1801 48.663 56.1 46.6924 56.3956H46.5049C46.1913 56.3933 45.89 56.2731 45.6608 56.059C45.4316 55.8449 45.2913 55.5525 45.2677 55.2397C45.2441 54.927 45.339 54.6168 45.5334 54.3707C45.7278 54.1246 46.0077 53.9606 46.3174 53.9112C47.7539 53.6777 49.0806 52.9983 50.1097 51.9692C51.1388 50.9401 51.8182 49.6134 52.0518 48.1769C52.069 48.0085 52.1203 47.8454 52.2025 47.6975C52.2847 47.5495 52.3961 47.4198 52.5299 47.3162C52.6638 47.2126 52.8172 47.1372 52.9811 47.0947C53.1449 47.0521 53.3156 47.0433 53.4829 47.0687C53.6503 47.0941 53.8107 47.1533 53.9545 47.2425C54.0983 47.3318 54.2225 47.4493 54.3195 47.588C54.4165 47.7267 54.4843 47.8836 54.5189 48.0493C54.5534 48.215 54.554 48.386 54.5205 48.5519V48.5675Z" fill="black"/>
</svg>
