<svg width="25" height="25" viewBox="0 0 25 25" fill="none" xmlns="http://www.w3.org/2000/svg">
<path d="M24.9851 5.93622L23.5732 13.9754C23.4568 14.6395 23.1197 15.2401 22.6206 15.6727C22.1216 16.1052 21.4922 16.3423 20.8421 16.3426H7.41799L7.92718 19.2266H20.3677C20.917 19.2266 21.454 19.3958 21.9107 19.7127C22.3674 20.0296 22.7234 20.48 22.9336 21.007C23.1439 21.534 23.1989 22.1138 23.0917 22.6733C22.9845 23.2327 22.72 23.7466 22.3316 24.1499C21.9431 24.5533 21.4483 24.8279 20.9095 24.9392C20.3707 25.0505 19.8123 24.9934 19.3048 24.7751C18.7973 24.5568 18.3635 24.1872 18.0583 23.7129C17.7531 23.2386 17.5902 22.681 17.5902 22.1106C17.5903 21.7829 17.6452 21.4576 17.7523 21.1493H10.9476C11.0547 21.4576 11.1095 21.7829 11.1096 22.1106C11.1105 22.5759 11.0029 23.0346 10.796 23.4473C10.5891 23.8601 10.2892 24.2148 9.92169 24.481C9.55421 24.7473 9.13013 24.9173 8.68566 24.9766C8.24119 25.0358 7.78952 24.9824 7.3692 24.8211C6.94889 24.6597 6.57241 24.3952 6.2719 24.05C5.97139 23.7048 5.75578 23.2893 5.64347 22.8388C5.53116 22.3884 5.52548 21.9164 5.62692 21.4631C5.72836 21.0099 5.93391 20.5889 6.22602 20.236L3.02043 1.92266H0.925802C0.680264 1.92266 0.444783 1.82138 0.271161 1.6411C0.0975396 1.46081 0 1.21629 0 0.961332C0 0.706371 0.0975396 0.461852 0.271161 0.281567C0.444783 0.101283 0.680264 0 0.925802 0H3.02043C3.45259 0.000981637 3.87081 0.1589 4.20264 0.446399C4.53446 0.733897 4.75899 1.13286 4.83732 1.57418L5.40437 4.80666H24.0709C24.206 4.80695 24.3394 4.83835 24.4615 4.89861C24.5836 4.95887 24.6912 5.04648 24.7768 5.15514C24.8663 5.26039 24.9316 5.38541 24.9677 5.52074C25.0038 5.65607 25.0097 5.79815 24.9851 5.93622Z" fill="white"/>
</svg>
