<svg width="27" height="26" viewBox="0 0 27 26" fill="none" xmlns="http://www.w3.org/2000/svg">
<path d="M26.2383 6.66406L24.8086 14.5039C24.6907 15.1515 24.3493 15.7373 23.8439 16.1591C23.3386 16.581 22.7013 16.8122 22.043 16.8125H8.44922L8.96484 19.625H21.5625C22.1188 19.625 22.6625 19.7899 23.125 20.099C23.5876 20.408 23.948 20.8473 24.1609 21.3612C24.3738 21.8751 24.4295 22.4406 24.321 22.9862C24.2124 23.5318 23.9446 24.0329 23.5512 24.4262C23.1579 24.8196 22.6568 25.0874 22.1112 25.196C21.5656 25.3045 21.0001 25.2488 20.4862 25.0359C19.9723 24.823 19.533 24.4626 19.224 24C18.9149 23.5375 18.75 22.9938 18.75 22.4375C18.7501 22.1179 18.8056 21.8007 18.9141 21.5H12.0234C12.1319 21.8007 12.1874 22.1179 12.1875 22.4375C12.1883 22.8913 12.0794 23.3385 11.8699 23.7411C11.6604 24.1436 11.3567 24.4895 10.9845 24.7492C10.6124 25.0088 10.183 25.1746 9.73291 25.2324C9.28282 25.2901 8.82544 25.2381 8.39981 25.0808C7.97419 24.9234 7.59295 24.6654 7.28865 24.3288C6.98434 23.9922 6.76601 23.5869 6.65227 23.1476C6.53854 22.7084 6.53279 22.2481 6.63552 21.8061C6.73824 21.3641 6.94639 20.9535 7.24219 20.6094L3.99609 2.75H1.875C1.62636 2.75 1.3879 2.65123 1.21209 2.47541C1.03627 2.2996 0.9375 2.06114 0.9375 1.8125C0.9375 1.56386 1.03627 1.3254 1.21209 1.14959C1.3879 0.973772 1.62636 0.875 1.875 0.875H3.99609C4.43372 0.875957 4.85722 1.02996 5.19324 1.31033C5.52926 1.5907 5.75662 1.97978 5.83594 2.41016L6.41016 5.5625H25.3125C25.4494 5.56278 25.5845 5.59341 25.7081 5.65217C25.8317 5.71094 25.9407 5.79638 26.0273 5.90234C26.118 6.00498 26.1841 6.12691 26.2206 6.25888C26.2572 6.39085 26.2632 6.52941 26.2383 6.66406Z" fill="white"/>
</svg>
